<?xml version="1.0" encoding="UTF-8" standalone="no"?>
<!DOCTYPE svg PUBLIC "-//W3C//DTD SVG 1.1//EN"
 "http://www.w3.org/Graphics/SVG/1.1/DTD/svg11.dtd">
<!-- Generated by graphviz version 14.1.2 (20260124.0452)
 -->
<!-- Title: ConnectivityModel Pages: 1 -->
<svg width="2419pt" height="1276pt"
 viewBox="0.00 0.00 2419.00 1276.00" xmlns="http://www.w3.org/2000/svg" xmlns:xlink="http://www.w3.org/1999/xlink">
<g id="graph0" class="graph" transform="scale(1 1) rotate(0) translate(57.6 1217.94)">
<title>ConnectivityModel</title>
<polygon fill="#f7f8fa" stroke="none" points="-57.6,57.6 -57.6,-1217.94 2361.6,-1217.94 2361.6,57.6 -57.6,57.6"/>
<g id="clust2" class="cluster">
<title>cluster_inputs</title>
<polygon fill="#ebf5fb" stroke="#1a5276" points="202,-1007.43 202,-1135.69 1128,-1135.69 1128,-1007.43 202,-1007.43"/>
<text xml:space="preserve" text-anchor="middle" x="665" y="-1120.29" font-family="Helvetica Neue Bold" font-size="12.00" fill="#1a5276">① DATA INPUTS</text>
</g>
<g id="clust3" class="cluster">
<title>cluster_params</title>
<polygon fill="#f5eef8" stroke="#6c3483" points="1136,-990.78 1136,-1152.34 2296,-1152.34 2296,-990.78 1136,-990.78"/>
<text xml:space="preserve" text-anchor="middle" x="1716" y="-1136.94" font-family="Helvetica Neue Bold" font-size="12.00" fill="#6c3483">② PARAMETERS</text>
</g>
<g id="clust4" class="cluster">
<title>cluster_infra</title>
<polygon fill="#fef9e7" stroke="#9a7d0a" points="372,-839 372,-947.28 743,-947.28 743,-839 372,-839"/>
<text xml:space="preserve" text-anchor="middle" x="557.5" y="-931.88" font-family="Helvetica Neue Bold" font-size="12.00" fill="#9a7d0a">③ SHARED INFRASTRUCTURE</text>
</g>
<g id="clust5" class="cluster">
<title>cluster_pci</title>
<polygon fill="#eafaf1" stroke="#1e8449" points="696,-429.32 696,-789.5 906,-789.5 906,-429.32 696,-429.32"/>
<text xml:space="preserve" text-anchor="middle" x="801" y="-774.1" font-family="Helvetica Neue Bold" font-size="12.00" fill="#1e8449">④ PCI — Pedestrian Connectivity</text>
</g>
<g id="clust6" class="cluster">
<title>cluster_bci</title>
<polygon fill="#ebf5fb" stroke="#154360" points="247,-429.32 247,-795.5 442,-795.5 442,-429.32 247,-429.32"/>
<text xml:space="preserve" text-anchor="middle" x="344.5" y="-780.1" font-family="Helvetica Neue Bold" font-size="12.00" fill="#154360">⑤ BCI — Business Connectivity</text>
</g>
<g id="clust7" class="cluster">
<title>cluster_scenarios</title>
<polygon fill="#fdedec" stroke="#922b21" points="243,-168.51 243,-397.07 755,-397.07 755,-168.51 243,-168.51"/>
<text xml:space="preserve" text-anchor="middle" x="499" y="-381.67" font-family="Helvetica Neue Bold" font-size="12.00" fill="#922b21">⑥ SCENARIO TESTING</text>
</g>
<g id="clust8" class="cluster">
<title>cluster_outputs</title>
<polygon fill="#fef5e7" stroke="#ca6f1e" points="207,-8 207,-136.26 985,-136.26 985,-8 207,-8"/>
<text xml:space="preserve" text-anchor="middle" x="596" y="-120.86" font-family="Helvetica Neue Bold" font-size="12.00" fill="#ca6f1e">⑦ OUTPUTS &#160;— &#160;Capstone/Outputs/{city}/</text>
</g>
<!-- _i -->
<!-- _p -->
<!-- _i&#45;&gt;_p -->
<!-- boundary -->
<g id="node3" class="node">
<title>boundary</title>
<path fill="#aed6f1" stroke="#1a5276" d="M558.27,-1083.28C558.27,-1086.13 520.05,-1088.44 473,-1088.44 425.95,-1088.44 387.73,-1086.13 387.73,-1083.28 387.73,-1083.28 387.73,-1036.84 387.73,-1036.84 387.73,-1033.99 425.95,-1031.68 473,-1031.68 520.05,-1031.68 558.27,-1033.99 558.27,-1036.84 558.27,-1036.84 558.27,-1083.28 558.27,-1083.28"/>
<path fill="none" stroke="#1a5276" d="M558.27,-1083.28C558.27,-1080.43 520.05,-1078.12 473,-1078.12 425.95,-1078.12 387.73,-1080.43 387.73,-1083.28"/>
<text xml:space="preserve" text-anchor="middle" x="473" y="-1062.56" font-family="Helvetica Neue" font-size="10.00">City Boundary</text>
<text xml:space="preserve" text-anchor="middle" x="473" y="-1050.56" font-family="Helvetica Neue" font-size="10.00">OSM polygon / local GeoJSON</text>
</g>
<!-- hex_grid -->
<g id="node11" class="node">
<title>hex_grid</title>
<polygon fill="#f9e79f" stroke="#9a7d0a" points="726.65,-902.28 577.35,-902.28 573.35,-898.28 573.35,-861 722.65,-861 726.65,-865 726.65,-902.28"/>
<polyline fill="none" stroke="#9a7d0a" points="722.65,-898.28 573.35,-898.28"/>
<polyline fill="none" stroke="#9a7d0a" points="722.65,-898.28 722.65,-861"/>
<polyline fill="none" stroke="#9a7d0a" points="722.65,-898.28 726.65,-902.28"/>
<text xml:space="preserve" text-anchor="middle" x="650" y="-884.14" font-family="Helvetica Neue" font-size="10.00">H3 Hex Grid</text>
<text xml:space="preserve" text-anchor="middle" x="650" y="-872.14" font-family="Helvetica Neue" font-size="10.00">hex_id · geometry · area_m²</text>
</g>
<!-- boundary&#45;&gt;hex_grid -->
<g id="edge9" class="edge">
<title>boundary&#45;&gt;hex_grid</title>
<path fill="none" stroke="#555555" stroke-width="1.4" d="M515.08,-1007.43C528.05,-993.07 543.5,-978.03 569.36,-954.33"/>
<polygon fill="#555555" stroke="#555555" stroke-width="1.4" points="571.26,-956.64 575.53,-948.71 567.24,-952.24 571.26,-956.64"/>
<text xml:space="preserve" text-anchor="middle" x="553.5" y="-969.23" font-family="Helvetica Neue" font-size="9.00">city boundary</text>
<text xml:space="preserve" text-anchor="middle" x="553.5" y="-957.98" font-family="Helvetica Neue" font-size="9.00">OSM / GTFS / census</text>
</g>
<!-- amenities -->
<g id="node4" class="node">
<title>amenities</title>
<path fill="#aed6f1" stroke="#1a5276" d="M737.77,-1090.03C737.77,-1093.71 705.6,-1096.69 666,-1096.69 626.4,-1096.69 594.23,-1093.71 594.23,-1090.03 594.23,-1090.03 594.23,-1030.09 594.23,-1030.09 594.23,-1026.42 626.4,-1023.43 666,-1023.43 705.6,-1023.43 737.77,-1026.42 737.77,-1030.09 737.77,-1030.09 737.77,-1090.03 737.77,-1090.03"/>
<path fill="none" stroke="#1a5276" d="M737.77,-1090.03C737.77,-1086.36 705.6,-1083.37 666,-1083.37 626.4,-1083.37 594.23,-1086.36 594.23,-1090.03"/>
<text xml:space="preserve" text-anchor="middle" x="666" y="-1068.56" font-family="Helvetica Neue" font-size="10.00">OSM Amenities</text>
<text xml:space="preserve" text-anchor="middle" x="666" y="-1056.56" font-family="Helvetica Neue" font-size="10.00">health · education · parks</text>
<text xml:space="preserve" text-anchor="middle" x="666" y="-1044.56" font-family="Helvetica Neue" font-size="10.00">community · food · transit</text>
</g>
<!-- mass -->
<g id="node13" class="node">
<title>mass</title>
<path fill="#abebc6" stroke="#1e8449" d="M877.65,-750.5C877.65,-750.5 724.35,-750.5 724.35,-750.5 718.35,-750.5 712.35,-744.5 712.35,-738.5 712.35,-738.5 712.35,-709.22 712.35,-709.22 712.35,-703.22 718.35,-697.22 724.35,-697.22 724.35,-697.22 877.65,-697.22 877.65,-697.22 883.65,-697.22 889.65,-703.22 889.65,-709.22 889.65,-709.22 889.65,-738.5 889.65,-738.5 889.65,-744.5 883.65,-750.5 877.65,-750.5"/>
<text xml:space="preserve" text-anchor="middle" x="801" y="-732.36" font-family="Helvetica Neue" font-size="10.00">Amenity Mass Surface</text>
<text xml:space="preserve" text-anchor="middle" x="801" y="-720.36" font-family="Helvetica Neue" font-size="10.00">count (facilities) or area (parks)</text>
<text xml:space="preserve" text-anchor="middle" x="801" y="-708.36" font-family="Helvetica Neue" font-size="10.00">normalised · weighted composite</text>
</g>
<!-- amenities&#45;&gt;mass -->
<g id="edge13" class="edge">
<title>amenities&#45;&gt;mass</title>
<path fill="none" stroke="#555555" stroke-width="1.4" d="M670.44,-1007.43C677.41,-942.11 690.63,-911.26 756.86,-798.41"/>
<polygon fill="#555555" stroke="#555555" stroke-width="1.4" points="759.28,-800.16 761.03,-791.33 754.15,-797.14 759.28,-800.16"/>
<text xml:space="preserve" text-anchor="middle" x="833" y="-878.72" font-family="Helvetica Neue" font-size="9.00">amenity features</text>
</g>
<!-- suppliers -->
<g id="node5" class="node">
<title>suppliers</title>
<path fill="#aed6f1" stroke="#1a5276" d="M351.52,-1090.03C351.52,-1093.71 321.71,-1096.69 285,-1096.69 248.29,-1096.69 218.47,-1093.71 218.47,-1090.03 218.47,-1090.03 218.47,-1030.09 218.47,-1030.09 218.47,-1026.42 248.29,-1023.43 285,-1023.43 321.71,-1023.43 351.52,-1026.42 351.52,-1030.09 351.52,-1030.09 351.52,-1090.03 351.52,-1090.03"/>
<path fill="none" stroke="#1a5276" d="M351.52,-1090.03C351.52,-1086.36 321.71,-1083.37 285,-1083.37 248.29,-1083.37 218.47,-1086.36 218.47,-1090.03"/>
<text xml:space="preserve" text-anchor="middle" x="285" y="-1068.56" font-family="Helvetica Neue" font-size="10.00">OSM Suppliers</text>
<text xml:space="preserve" text-anchor="middle" x="285" y="-1056.56" font-family="Helvetica Neue" font-size="10.00">offices · industrial</text>
<text xml:space="preserve" text-anchor="middle" x="285" y="-1044.56" font-family="Helvetica Neue" font-size="10.00">commercial · wholesale</text>
</g>
<!-- bci_mass -->
<g id="node16" class="node">
<title>bci_mass</title>
<path fill="#85c1e9" stroke="#154360" d="M401.02,-756.5C401.02,-756.5 276.98,-756.5 276.98,-756.5 270.98,-756.5 264.98,-750.5 264.98,-744.5 264.98,-744.5 264.98,-703.22 264.98,-703.22 264.98,-697.22 270.98,-691.22 276.98,-691.22 276.98,-691.22 401.02,-691.22 401.02,-691.22 407.02,-691.22 413.02,-697.22 413.02,-703.22 413.02,-703.22 413.02,-744.5 413.02,-744.5 413.02,-750.5 407.02,-756.5 401.02,-756.5"/>
<text xml:space="preserve" text-anchor="middle" x="339" y="-738.36" font-family="Helvetica Neue" font-size="10.00">Mass Components</text>
<text xml:space="preserve" text-anchor="middle" x="339" y="-726.36" font-family="Helvetica Neue" font-size="10.00">market &#160;M = pop × income</text>
<text xml:space="preserve" text-anchor="middle" x="339" y="-714.36" font-family="Helvetica Neue" font-size="10.00">labour &#160;L</text>
<text xml:space="preserve" text-anchor="middle" x="339" y="-702.36" font-family="Helvetica Neue" font-size="10.00">supplier &#160;S</text>
</g>
<!-- suppliers&#45;&gt;bci_mass -->
<g id="edge14" class="edge">
<title>suppliers&#45;&gt;bci_mass</title>
<path fill="none" stroke="#555555" stroke-width="1.4" d="M271.94,-1007.43C254.14,-930.33 257.79,-900.56 301.08,-804.92"/>
<polygon fill="#555555" stroke="#555555" stroke-width="1.4" points="303.68,-806.4 304.5,-797.43 298.27,-803.93 303.68,-806.4"/>
<text xml:space="preserve" text-anchor="middle" x="318.12" y="-884.34" font-family="Helvetica Neue" font-size="9.00">supplier counts</text>
<text xml:space="preserve" text-anchor="middle" x="318.12" y="-873.09" font-family="Helvetica Neue" font-size="9.00">census masses</text>
</g>
<!-- census -->
<g id="node6" class="node">
<title>census</title>
<path fill="#aed6f1" stroke="#1a5276" d="M928.02,-1083.28C928.02,-1086.13 893.5,-1088.44 851,-1088.44 808.5,-1088.44 773.98,-1086.13 773.98,-1083.28 773.98,-1083.28 773.98,-1036.84 773.98,-1036.84 773.98,-1033.99 808.5,-1031.68 851,-1031.68 893.5,-1031.68 928.02,-1033.99 928.02,-1036.84 928.02,-1036.84 928.02,-1083.28 928.02,-1083.28"/>
<path fill="none" stroke="#1a5276" d="M928.02,-1083.28C928.02,-1080.43 893.5,-1078.12 851,-1078.12 808.5,-1078.12 773.98,-1080.43 773.98,-1083.28"/>
<text xml:space="preserve" text-anchor="middle" x="851" y="-1062.56" font-family="Helvetica Neue" font-size="10.00">Census (ACS)</text>
<text xml:space="preserve" text-anchor="middle" x="851" y="-1050.56" font-family="Helvetica Neue" font-size="10.00">population · income · labour</text>
</g>
<!-- transport -->
<g id="node7" class="node">
<title>transport</title>
<path fill="#aed6f1" stroke="#1a5276" d="M1111.65,-1083.28C1111.65,-1086.13 1078.64,-1088.44 1038,-1088.44 997.36,-1088.44 964.35,-1086.13 964.35,-1083.28 964.35,-1083.28 964.35,-1036.84 964.35,-1036.84 964.35,-1033.99 997.36,-1031.68 1038,-1031.68 1078.64,-1031.68 1111.65,-1033.99 1111.65,-1036.84 1111.65,-1036.84 1111.65,-1083.28 1111.65,-1083.28"/>
<path fill="none" stroke="#1a5276" d="M1111.65,-1083.28C1111.65,-1080.43 1078.64,-1078.12 1038,-1078.12 997.36,-1078.12 964.35,-1080.43 964.35,-1083.28"/>
<text xml:space="preserve" text-anchor="middle" x="1038" y="-1062.56" font-family="Helvetica Neue" font-size="10.00">Transport Network</text>
<text xml:space="preserve" text-anchor="middle" x="1038" y="-1050.56" font-family="Helvetica Neue" font-size="10.00">OSM roads &#160;+ &#160;GTFS feed</text>
</g>
<!-- city_cfg -->
<g id="node8" class="node">
<title>city_cfg</title>
<path fill="#d7bde2" stroke="#6c3483" d="M1504.26,-1113.34C1504.26,-1113.34 1238.32,-1113.34 1238.32,-1113.34 1232.32,-1113.34 1222.88,-1108.43 1219.44,-1103.51 1219.44,-1103.51 1158.62,-1016.61 1158.62,-1016.61 1155.18,-1011.7 1157.74,-1006.78 1163.74,-1006.78 1163.74,-1006.78 1429.68,-1006.78 1429.68,-1006.78 1435.68,-1006.78 1445.12,-1011.7 1448.56,-1016.61 1448.56,-1016.61 1509.38,-1103.51 1509.38,-1103.51 1512.82,-1108.43 1510.26,-1113.34 1504.26,-1113.34"/>
<text xml:space="preserve" text-anchor="middle" x="1334" y="-1068.56" font-family="Helvetica Neue" font-size="10.00">City Config</text>
<text xml:space="preserve" text-anchor="middle" x="1334" y="-1056.56" font-family="Helvetica Neue" font-size="10.00">H3 resolution · travel speeds</text>
<text xml:space="preserve" text-anchor="middle" x="1334" y="-1044.56" font-family="Helvetica Neue" font-size="10.00">costs per mode · max travel time</text>
</g>
<!-- city_cfg&#45;&gt;hex_grid -->
<g id="edge10" class="edge">
<title>city_cfg&#45;&gt;hex_grid</title>
<path fill="none" stroke="#555555" stroke-width="1.4" d="M1136,-1078.79C959.03,-1090.44 898.21,-1066.82 745.09,-953.54"/>
<polygon fill="#555555" stroke="#555555" stroke-width="1.4" points="746.96,-951.22 738.36,-948.54 743.41,-956 746.96,-951.22"/>
<text xml:space="preserve" text-anchor="middle" x="713.88" y="-963.61" font-family="Helvetica Neue" font-size="9.00">resolution · speeds</text>
</g>
<!-- pci_p -->
<g id="node9" class="node">
<title>pci_p</title>
<path fill="#d7bde2" stroke="#6c3483" d="M2267.93,-1113.34C2267.93,-1113.34 2027.97,-1113.34 2027.97,-1113.34 2021.97,-1113.34 2012.75,-1108.28 2009.52,-1103.22 2009.52,-1103.22 1954.52,-1016.9 1954.52,-1016.9 1951.29,-1011.84 1954.07,-1006.78 1960.07,-1006.78 1960.07,-1006.78 2200.03,-1006.78 2200.03,-1006.78 2206.03,-1006.78 2215.25,-1011.84 2218.48,-1016.9 2218.48,-1016.9 2273.48,-1103.22 2273.48,-1103.22 2276.71,-1108.28 2273.93,-1113.34 2267.93,-1113.34"/>
<text xml:space="preserve" text-anchor="middle" x="2114" y="-1068.56" font-family="Helvetica Neue" font-size="10.00">PCI Parameters</text>
<text xml:space="preserve" text-anchor="middle" x="2114" y="-1056.56" font-family="Helvetica Neue" font-size="10.00">β decay &#160;· &#160;λ active&#45;street</text>
<text xml:space="preserve" text-anchor="middle" x="2114" y="-1044.56" font-family="Helvetica Neue" font-size="10.00">amenity weights per category</text>
</g>
<!-- pci_p&#45;&gt;mass -->
<g id="edge15" class="edge">
<title>pci_p&#45;&gt;mass</title>
<path fill="none" stroke="#555555" stroke-width="1.4" d="M1450.59,-990.78C1322.83,-945.52 1158.26,-876.39 915.68,-772.86"/>
<polygon fill="#555555" stroke="#555555" stroke-width="1.4" points="916.93,-770.16 907.95,-769.56 914.6,-775.63 916.93,-770.16"/>
<text xml:space="preserve" text-anchor="middle" x="1821.38" y="-878.72" font-family="Helvetica Neue" font-size="9.00">β · λ · weights</text>
</g>
<!-- bci_p -->
<g id="node10" class="node">
<title>bci_p</title>
<path fill="#d7bde2" stroke="#6c3483" d="M1899.93,-1113.34C1899.93,-1113.34 1637.7,-1113.34 1637.7,-1113.34 1631.7,-1113.34 1622.29,-1108.41 1618.88,-1103.47 1618.88,-1103.47 1558.89,-1016.65 1558.89,-1016.65 1555.48,-1011.72 1558.07,-1006.78 1564.07,-1006.78 1564.07,-1006.78 1826.3,-1006.78 1826.3,-1006.78 1832.3,-1006.78 1841.71,-1011.72 1845.12,-1016.65 1845.12,-1016.65 1905.11,-1103.47 1905.11,-1103.47 1908.52,-1108.41 1905.93,-1113.34 1899.93,-1113.34"/>
<text xml:space="preserve" text-anchor="middle" x="1732" y="-1068.56" font-family="Helvetica Neue" font-size="10.00">BCI Parameters</text>
<text xml:space="preserve" text-anchor="middle" x="1732" y="-1056.56" font-family="Helvetica Neue" font-size="10.00">β_market · β_labour · β_supplier</text>
<text xml:space="preserve" text-anchor="middle" x="1732" y="-1044.56" font-family="Helvetica Neue" font-size="10.00">combination method + weights</text>
</g>
<!-- bci_p&#45;&gt;bci_mass -->
<g id="edge16" class="edge">
<title>bci_p&#45;&gt;bci_mass</title>
<path fill="none" stroke="#555555" stroke-width="1.4" d="M1136,-1114.33C890.9,-1109.34 757.44,-1028.47 445.57,-801.72"/>
<polygon fill="#555555" stroke="#555555" stroke-width="1.4" points="447.35,-799.34 438.72,-796.74 443.85,-804.15 447.35,-799.34"/>
<text xml:space="preserve" text-anchor="middle" x="1369.12" y="-878.72" font-family="Helvetica Neue" font-size="9.00">β_m · β_l · β_s · λ</text>
</g>
<!-- hex_grid&#45;&gt;mass -->
<g id="edge11" class="edge">
<title>hex_grid&#45;&gt;mass</title>
<path fill="none" stroke="#555555" stroke-width="1.4" d="M678.31,-839C688.28,-825.93 699.52,-814.01 718.47,-796.5"/>
<polygon fill="#555555" stroke="#555555" stroke-width="1.4" points="720.3,-798.86 724.56,-790.93 716.28,-794.47 720.3,-798.86"/>
<text xml:space="preserve" text-anchor="middle" x="713" y="-817.45" font-family="Helvetica Neue" font-size="9.00">hex geometry</text>
<text xml:space="preserve" text-anchor="middle" x="713" y="-806.2" font-family="Helvetica Neue" font-size="9.00">travel times</text>
</g>
<!-- network -->
<g id="node12" class="node">
<title>network</title>
<polygon fill="#f9e79f" stroke="#9a7d0a" points="537.77,-908.28 392.23,-908.28 388.23,-904.28 388.23,-855 533.77,-855 537.77,-859 537.77,-908.28"/>
<polyline fill="none" stroke="#9a7d0a" points="533.77,-904.28 388.23,-904.28"/>
<polyline fill="none" stroke="#9a7d0a" points="533.77,-904.28 533.77,-855"/>
<polyline fill="none" stroke="#9a7d0a" points="533.77,-904.28 537.77,-908.28"/>
<text xml:space="preserve" text-anchor="middle" x="463" y="-890.14" font-family="Helvetica Neue" font-size="10.00">Multimodal Network</text>
<text xml:space="preserve" text-anchor="middle" x="463" y="-878.14" font-family="Helvetica Neue" font-size="10.00">walk · transit · drive graphs</text>
<text xml:space="preserve" text-anchor="middle" x="463" y="-866.14" font-family="Helvetica Neue" font-size="10.00">Dijkstra travel&#45;time cache</text>
</g>
<!-- network&#45;&gt;bci_mass -->
<g id="edge12" class="edge">
<title>network&#45;&gt;bci_mass</title>
<path fill="none" stroke="#555555" stroke-width="1.4" d="M401.63,-839C385.54,-826.66 375.08,-816.44 367.25,-804.52"/>
<polygon fill="#555555" stroke="#555555" stroke-width="1.4" points="369.91,-803.17 363.06,-797.33 364.77,-806.17 369.91,-803.17"/>
<text xml:space="preserve" text-anchor="middle" x="432" y="-817.45" font-family="Helvetica Neue" font-size="9.00">hex geometry</text>
<text xml:space="preserve" text-anchor="middle" x="432" y="-806.2" font-family="Helvetica Neue" font-size="9.00">travel times</text>
</g>
<!-- pci_access -->
<g id="node14" class="node">
<title>pci_access</title>
<path fill="#abebc6" stroke="#1e8449" d="M853.9,-626.22C853.9,-626.22 756.1,-626.22 756.1,-626.22 750.1,-626.22 744.1,-620.22 744.1,-614.22 744.1,-614.22 744.1,-584.94 744.1,-584.94 744.1,-578.94 750.1,-572.94 756.1,-572.94 756.1,-572.94 853.9,-572.94 853.9,-572.94 859.9,-572.94 865.9,-578.94 865.9,-584.94 865.9,-584.94 865.9,-614.22 865.9,-614.22 865.9,-620.22 859.9,-626.22 853.9,-626.22"/>
<text xml:space="preserve" text-anchor="middle" x="805" y="-608.08" font-family="Helvetica Neue" font-size="10.00">Hansen Accessibility</text>
<text xml:space="preserve" text-anchor="middle" x="805" y="-596.08" font-family="Helvetica Neue" font-size="10.00">e^(−β·t) × mass</text>
<text xml:space="preserve" text-anchor="middle" x="805" y="-584.08" font-family="Helvetica Neue" font-size="10.00">weighted by income</text>
</g>
<!-- mass&#45;&gt;pci_access -->
<g id="edge2" class="edge">
<title>mass&#45;&gt;pci_access</title>
<path fill="none" stroke="#555555" stroke-width="1.4" d="M790.71,-696.77C782.81,-673.81 782.71,-661.95 791.18,-636.63"/>
<polygon fill="#555555" stroke="#555555" stroke-width="1.4" points="793.98,-637.65 793.99,-628.65 788.37,-635.68 793.98,-637.65"/>
</g>
<!-- pci_score -->
<g id="node15" class="node">
<title>pci_score</title>
<ellipse fill="#1a7a3c" stroke="#0d5c27" cx="807" cy="-476.63" rx="56.43" ry="31.31"/>
<text xml:space="preserve" text-anchor="middle" x="807" y="-479.68" font-family="Helvetica Neue" font-size="11.00" fill="white">PCI Score</text>
<text xml:space="preserve" text-anchor="middle" x="807" y="-466.18" font-family="Helvetica Neue" font-size="11.00" fill="white">[0 – 100]</text>
</g>
<!-- pci_access&#45;&gt;pci_score -->
<g id="edge3" class="edge">
<title>pci_access&#45;&gt;pci_score</title>
<path fill="none" stroke="#555555" stroke-width="1.4" d="M795.38,-572.52C787.09,-547.9 785.44,-535.63 790.7,-517.59"/>
<polygon fill="#555555" stroke="#555555" stroke-width="1.4" points="793.52,-518.55 793.41,-509.54 787.88,-516.65 793.52,-518.55"/>
</g>
<!-- sc_pci -->
<g id="node19" class="node">
<title>sc_pci</title>
<polygon fill="#fadbd8" stroke="#922b21" points="567.02,-358.07 430.98,-358.07 430.98,-354.07 426.98,-354.07 426.98,-350.07 430.98,-350.07 430.98,-312.79 426.98,-312.79 426.98,-308.79 430.98,-308.79 430.98,-304.79 567.02,-304.79 567.02,-358.07"/>
<polyline fill="none" stroke="#922b21" points="430.98,-354.07 434.98,-354.07 434.98,-350.07 430.98,-350.07"/>
<polyline fill="none" stroke="#922b21" points="430.98,-312.79 434.98,-312.79 434.98,-308.79 430.98,-308.79"/>
<text xml:space="preserve" text-anchor="middle" x="499" y="-339.93" font-family="Helvetica Neue" font-size="10.00">PCI Fast</text>
<text xml:space="preserve" text-anchor="middle" x="499" y="-327.93" font-family="Helvetica Neue" font-size="10.00">amenity add / remove</text>
<text xml:space="preserve" text-anchor="middle" x="499" y="-315.93" font-family="Helvetica Neue" font-size="10.00">(reuse travel&#45;time cache)</text>
</g>
<!-- pci_score&#45;&gt;sc_pci -->
<g id="edge17" class="edge">
<title>pci_score&#45;&gt;sc_pci</title>
<path fill="none" stroke="#922b21" stroke-width="1.4" stroke-dasharray="5,2" d="M698.84,-429.32C673.47,-418.17 653.03,-409.1 635.8,-401.3"/>
<polygon fill="#922b21" stroke="#922b21" stroke-width="1.4" points="637.39,-398.75 628.42,-397.94 634.93,-404.17 637.39,-398.75"/>
<text xml:space="preserve" text-anchor="middle" x="641.5" y="-407.77" font-family="Helvetica Neue" font-size="9.00">baseline score</text>
</g>
<!-- pci_out -->
<g id="node23" class="node">
<title>pci_out</title>
<polygon fill="#fad7a0" stroke="#ca6f1e" points="962.77,-87.27 801.23,-87.27 801.23,-33.99 968.77,-33.99 968.77,-81.27 962.77,-87.27"/>
<polyline fill="none" stroke="#ca6f1e" points="962.77,-87.27 962.77,-81.27"/>
<polyline fill="none" stroke="#ca6f1e" points="968.77,-81.27 962.77,-81.27"/>
<text xml:space="preserve" text-anchor="middle" x="885" y="-69.13" font-family="Helvetica Neue" font-size="10.00">PCI Plots + Map</text>
<text xml:space="preserve" text-anchor="middle" x="885" y="-57.13" font-family="Helvetica Neue" font-size="10.00">topography · distribution</text>
<text xml:space="preserve" text-anchor="middle" x="885" y="-45.13" font-family="Helvetica Neue" font-size="10.00">choropleth (folium) &#160;.png / .html</text>
</g>
<!-- pci_score&#45;&gt;pci_out -->
<g id="edge19" class="edge">
<title>pci_score&#45;&gt;pci_out</title>
<path fill="none" stroke="#555555" stroke-width="1.4" d="M803.45,-429.32C791.16,-263.01 791.33,-216.61 831.12,-145.35"/>
<polygon fill="#555555" stroke="#555555" stroke-width="1.4" points="833.64,-146.95 835.28,-138.1 828.47,-143.99 833.64,-146.95"/>
</g>
<!-- saved -->
<g id="node26" class="node">
<title>saved</title>
<path fill="#fad7a0" stroke="#ca6f1e" d="M764.77,-90.6C764.77,-94.27 731.26,-97.26 690,-97.26 648.74,-97.26 615.23,-94.27 615.23,-90.6 615.23,-90.6 615.23,-30.66 615.23,-30.66 615.23,-26.99 648.74,-24 690,-24 731.26,-24 764.77,-26.99 764.77,-30.66 764.77,-30.66 764.77,-90.6 764.77,-90.6"/>
<path fill="none" stroke="#ca6f1e" d="M764.77,-90.6C764.77,-86.93 731.26,-83.94 690,-83.94 648.74,-83.94 615.23,-86.93 615.23,-90.6"/>
<text xml:space="preserve" text-anchor="middle" x="690" y="-69.13" font-family="Helvetica Neue" font-size="10.00">Saved State &#160;.pkl</text>
<text xml:space="preserve" text-anchor="middle" x="690" y="-57.13" font-family="Helvetica Neue" font-size="10.00">PCI · BCI · grid · mass</text>
<text xml:space="preserve" text-anchor="middle" x="690" y="-45.13" font-family="Helvetica Neue" font-size="10.00">census &#160;(network excluded)</text>
</g>
<!-- pci_score&#45;&gt;saved -->
<g id="edge22" class="edge">
<title>pci_score&#45;&gt;saved</title>
<path fill="none" stroke="#555555" stroke-width="1.4" stroke-dasharray="5,2" d="M784,-429.32C705.09,-266.63 686.47,-222.13 686.15,-146.49"/>
<polygon fill="#555555" stroke="#555555" stroke-width="1.4" points="689.12,-146.89 686.2,-138.38 683.17,-146.86 689.12,-146.89"/>
<text xml:space="preserve" text-anchor="middle" x="834" y="-267.24" font-family="Helvetica Neue" font-size="9.00">save_results()</text>
</g>
<!-- bci_access -->
<g id="node17" class="node">
<title>bci_access</title>
<path fill="#85c1e9" stroke="#154360" d="M394.27,-632.22C394.27,-632.22 277.73,-632.22 277.73,-632.22 271.73,-632.22 265.73,-626.22 265.73,-620.22 265.73,-620.22 265.73,-578.94 265.73,-578.94 265.73,-572.94 271.73,-566.94 277.73,-566.94 277.73,-566.94 394.27,-566.94 394.27,-566.94 400.27,-566.94 406.27,-572.94 406.27,-578.94 406.27,-578.94 406.27,-620.22 406.27,-620.22 406.27,-626.22 400.27,-632.22 394.27,-632.22"/>
<text xml:space="preserve" text-anchor="middle" x="336" y="-614.08" font-family="Helvetica Neue" font-size="10.00">Component Accessibility</text>
<text xml:space="preserve" text-anchor="middle" x="336" y="-602.08" font-family="Helvetica Neue" font-size="10.00">market &#160;(walk + transit)</text>
<text xml:space="preserve" text-anchor="middle" x="336" y="-590.08" font-family="Helvetica Neue" font-size="10.00">labour &#160;(drive + transit)</text>
<text xml:space="preserve" text-anchor="middle" x="336" y="-578.08" font-family="Helvetica Neue" font-size="10.00">supplier &#160;(drive)</text>
</g>
<!-- bci_mass&#45;&gt;bci_access -->
<g id="edge4" class="edge">
<title>bci_mass&#45;&gt;bci_access</title>
<path fill="none" stroke="#555555" stroke-width="1.4" d="M325.17,-691.05C318.19,-672.28 317.13,-660.81 321.65,-642.79"/>
<polygon fill="#555555" stroke="#555555" stroke-width="1.4" points="324.48,-643.72 323.94,-634.73 318.76,-642.09 324.48,-643.72"/>
</g>
<!-- bci_score -->
<g id="node18" class="node">
<title>bci_score</title>
<ellipse fill="#1a4a7a" stroke="#0d2b4e" cx="327" cy="-476.63" rx="56.43" ry="31.31"/>
<text xml:space="preserve" text-anchor="middle" x="327" y="-479.68" font-family="Helvetica Neue" font-size="11.00" fill="white">BCI Score</text>
<text xml:space="preserve" text-anchor="middle" x="327" y="-466.18" font-family="Helvetica Neue" font-size="11.00" fill="white">[0 – 100]</text>
</g>
<!-- bci_access&#45;&gt;bci_score -->
<g id="edge5" class="edge">
<title>bci_access&#45;&gt;bci_score</title>
<path fill="none" stroke="#555555" stroke-width="1.4" d="M321.17,-566.61C312.93,-546.55 311.06,-535 314.54,-518.02"/>
<polygon fill="#555555" stroke="#555555" stroke-width="1.4" points="317.37,-518.96 316.51,-509.99 311.59,-517.54 317.37,-518.96"/>
</g>
<!-- sc_bci -->
<g id="node20" class="node">
<title>sc_bci</title>
<polygon fill="#fadbd8" stroke="#922b21" points="395.02,-358.07 258.98,-358.07 258.98,-354.07 254.98,-354.07 254.98,-350.07 258.98,-350.07 258.98,-312.79 254.98,-312.79 254.98,-308.79 258.98,-308.79 258.98,-304.79 395.02,-304.79 395.02,-358.07"/>
<polyline fill="none" stroke="#922b21" points="258.98,-354.07 262.98,-354.07 262.98,-350.07 258.98,-350.07"/>
<polyline fill="none" stroke="#922b21" points="258.98,-312.79 262.98,-312.79 262.98,-308.79 258.98,-308.79"/>
<text xml:space="preserve" text-anchor="middle" x="327" y="-339.93" font-family="Helvetica Neue" font-size="10.00">BCI Fast</text>
<text xml:space="preserve" text-anchor="middle" x="327" y="-327.93" font-family="Helvetica Neue" font-size="10.00">supplier add / remove</text>
<text xml:space="preserve" text-anchor="middle" x="327" y="-315.93" font-family="Helvetica Neue" font-size="10.00">(reuse travel&#45;time cache)</text>
</g>
<!-- bci_score&#45;&gt;sc_bci -->
<g id="edge18" class="edge">
<title>bci_score&#45;&gt;sc_bci</title>
<path fill="none" stroke="#922b21" stroke-width="1.4" stroke-dasharray="5,2" d="M310.79,-429.32C308.41,-421.1 306.87,-414.11 306.16,-407.6"/>
<polygon fill="#922b21" stroke="#922b21" stroke-width="1.4" points="309.13,-407.56 305.83,-399.18 303.19,-407.79 309.13,-407.56"/>
<text xml:space="preserve" text-anchor="middle" x="355.5" y="-407.77" font-family="Helvetica Neue" font-size="9.00">baseline score</text>
</g>
<!-- bci_out -->
<g id="node24" class="node">
<title>bci_out</title>
<polygon fill="#fad7a0" stroke="#ca6f1e" points="384.77,-87.27 223.22,-87.27 223.22,-33.99 390.77,-33.99 390.77,-81.27 384.77,-87.27"/>
<polyline fill="none" stroke="#ca6f1e" points="384.77,-87.27 384.77,-81.27"/>
<polyline fill="none" stroke="#ca6f1e" points="390.77,-81.27 384.77,-81.27"/>
<text xml:space="preserve" text-anchor="middle" x="307" y="-69.13" font-family="Helvetica Neue" font-size="10.00">BCI Plots + Map</text>
<text xml:space="preserve" text-anchor="middle" x="307" y="-57.13" font-family="Helvetica Neue" font-size="10.00">masses · distribution</text>
<text xml:space="preserve" text-anchor="middle" x="307" y="-45.13" font-family="Helvetica Neue" font-size="10.00">choropleth (folium) &#160;.png / .html</text>
</g>
<!-- bci_score&#45;&gt;bci_out -->
<g id="edge20" class="edge">
<title>bci_score&#45;&gt;bci_out</title>
<path fill="none" stroke="#555555" stroke-width="1.4" d="M309.48,-429.32C253.66,-277.63 245.1,-239.08 275.72,-146.08"/>
<polygon fill="#555555" stroke="#555555" stroke-width="1.4" points="278.46,-147.27 278.35,-138.27 272.82,-145.37 278.46,-147.27"/>
</g>
<!-- sc_restore -->
<g id="node22" class="node">
<title>sc_restore</title>
<polygon fill="#fadbd8" stroke="#922b21" points="561.65,-235.54 432.35,-235.54 432.35,-184.51 567.65,-184.51 567.65,-229.54 561.65,-235.54"/>
<polyline fill="none" stroke="#922b21" points="561.65,-235.54 561.65,-229.54"/>
<polyline fill="none" stroke="#922b21" points="567.65,-229.54 561.65,-229.54"/>
<text xml:space="preserve" text-anchor="middle" x="500" y="-218.35" font-family="Helvetica Neue" font-size="9.00">Non&#45;destructive</text>
<text xml:space="preserve" text-anchor="middle" x="500" y="-207.1" font-family="Helvetica Neue" font-size="9.00">try / finally &#160;— full restore</text>
<text xml:space="preserve" text-anchor="middle" x="500" y="-195.85" font-family="Helvetica Neue" font-size="9.00">session state never written</text>
</g>
<!-- sc_pci&#45;&gt;sc_restore -->
<g id="edge6" class="edge">
<title>sc_pci&#45;&gt;sc_restore</title>
<path fill="none" stroke="#555555" stroke-width="1.4" stroke-dasharray="5,2" d="M490.96,-304.38C481.17,-270.17 480.41,-258.28 488.95,-235.84"/>
</g>
<!-- sc_bci&#45;&gt;sc_restore -->
<g id="edge7" class="edge">
<title>sc_bci&#45;&gt;sc_restore</title>
<path fill="none" stroke="#555555" stroke-width="1.4" stroke-dasharray="5,2" d="M343.82,-304.53C368.12,-266.94 382.35,-254.31 431.93,-234.8"/>
</g>
<!-- sc_slow -->
<g id="node21" class="node">
<title>sc_slow</title>
<polygon fill="#f1948a" stroke="#922b21" points="739.4,-358.07 602.6,-358.07 602.6,-354.07 598.6,-354.07 598.6,-350.07 602.6,-350.07 602.6,-312.79 598.6,-312.79 598.6,-308.79 602.6,-308.79 602.6,-304.79 739.4,-304.79 739.4,-358.07"/>
<polyline fill="none" stroke="#922b21" points="602.6,-354.07 606.6,-354.07 606.6,-350.07 602.6,-350.07"/>
<polyline fill="none" stroke="#922b21" points="602.6,-312.79 606.6,-312.79 606.6,-308.79 602.6,-308.79"/>
<text xml:space="preserve" text-anchor="middle" x="671" y="-339.93" font-family="Helvetica Neue" font-size="10.00">Slow &#160;(PCI + BCI)</text>
<text xml:space="preserve" text-anchor="middle" x="671" y="-327.93" font-family="Helvetica Neue" font-size="10.00">edge penalty / removal</text>
<text xml:space="preserve" text-anchor="middle" x="671" y="-315.93" font-family="Helvetica Neue" font-size="10.00">+ full Dijkstra recompute</text>
</g>
<!-- sc_slow&#45;&gt;sc_restore -->
<g id="edge8" class="edge">
<title>sc_slow&#45;&gt;sc_restore</title>
<path fill="none" stroke="#555555" stroke-width="1.4" stroke-dasharray="5,2" d="M629.98,-304.31C572.59,-266.31 552.69,-252.68 531.38,-235.81"/>
</g>
<!-- sc_out -->
<g id="node25" class="node">
<title>sc_out</title>
<polygon fill="#fad7a0" stroke="#ca6f1e" points="573.27,-87.27 426.73,-87.27 426.73,-33.99 579.27,-33.99 579.27,-81.27 573.27,-87.27"/>
<polyline fill="none" stroke="#ca6f1e" points="573.27,-87.27 573.27,-81.27"/>
<polyline fill="none" stroke="#ca6f1e" points="579.27,-81.27 573.27,-81.27"/>
<text xml:space="preserve" text-anchor="middle" x="503" y="-69.13" font-family="Helvetica Neue" font-size="10.00">Scenario Impact Report</text>
<text xml:space="preserve" text-anchor="middle" x="503" y="-57.13" font-family="Helvetica Neue" font-size="10.00">delta map · Δ stats</text>
<text xml:space="preserve" text-anchor="middle" x="503" y="-45.13" font-family="Helvetica Neue" font-size="10.00">top&#45;10 most&#45;affected hexes</text>
</g>
<!-- sc_restore&#45;&gt;sc_out -->
<g id="edge21" class="edge">
<title>sc_restore&#45;&gt;sc_out</title>
<path fill="none" stroke="#555555" stroke-width="1.4" d="M489.74,-168.51C487.81,-160.22 486.29,-153.03 485.19,-146.61"/>
<polygon fill="#555555" stroke="#555555" stroke-width="1.4" points="488.15,-146.34 483.99,-138.35 482.26,-147.19 488.15,-146.34"/>
<text xml:space="preserve" text-anchor="middle" x="548.25" y="-146.96" font-family="Helvetica Neue" font-size="9.00">delta map · impact stats</text>
</g>
</g>
</svg>
